<svg viewBox="0 0 160 160" fill="none" xmlns="http://www.w3.org/2000/svg" data-kawung-factor="small-teal-left-tile">
  <g transform="translate(-1035 -608) scale(0.72)" color="#BC2419">
<path d="M1150.14 695.472C1171.96 673.651 1171.96 638.276 1150.14 616.435L1145.14 621.428C1126.1 640.494 1126.1 671.412 1145.14 690.478L1150.14 695.472Z" stroke="currentColor" stroke-width="2.84933" stroke-miterlimit="10"/>
<path d="M1149.34 694.668C1171.16 672.847 1206.53 672.847 1228.35 694.668L1223.38 699.642C1204.31 718.728 1173.4 718.728 1154.33 699.642L1149.34 694.668Z" stroke="currentColor" stroke-width="2.84933" stroke-miterlimit="10"/>
<path d="M1147.94 733.446C1169.76 755.267 1205.13 755.267 1226.97 733.446L1221.98 728.472C1202.89 709.386 1171.98 709.386 1152.93 728.472L1147.94 733.446Z" stroke="currentColor" stroke-width="2.84933" stroke-miterlimit="10"/>
<path d="M1148.74 732.652C1170.56 754.473 1170.56 789.868 1148.74 811.689L1143.74 806.696C1124.68 787.63 1124.68 756.712 1143.74 737.625L1148.74 732.652Z" stroke="currentColor" stroke-width="2.84933" stroke-miterlimit="10"/>
<path d="M1112.36 694.864C1090.54 673.043 1055.17 673.043 1033.34 694.864L1038.32 699.859C1057.4 718.924 1088.32 718.924 1107.39 699.859L1112.36 694.864Z" stroke="currentColor" stroke-width="2.84933" stroke-miterlimit="10"/>
<path d="M1111.57 695.668C1089.75 673.847 1089.75 638.472 1111.57 616.631L1116.54 621.624C1135.63 640.69 1135.63 671.608 1116.54 690.674L1111.57 695.668Z" stroke="currentColor" stroke-width="2.84933" stroke-miterlimit="10"/>
<path d="M1109.88 732.228C1088.06 754.049 1088.06 789.444 1109.88 811.265L1114.85 806.272C1133.92 787.206 1133.92 756.288 1114.85 737.222L1109.88 732.228Z" stroke="currentColor" stroke-width="2.84933" stroke-miterlimit="10"/>
<path d="M1110.67 733.032C1088.85 754.853 1053.47 754.853 1031.63 733.032L1036.63 728.037C1055.69 708.972 1086.61 708.972 1105.7 728.037L1110.67 733.032Z" stroke="currentColor" stroke-width="2.84933" stroke-miterlimit="10"/>
  </g>
</svg>

